<svg width="180" height="39" viewBox="0 0 180 39" fill="none" xmlns="http://www.w3.org/2000/svg">
<path fill-rule="evenodd" clip-rule="evenodd" d="M168.905 11.1781H172.633L172.611 17.136H173.421L175.549 11.1781H179.583L176.687 19.0498L180 27.7624H175.636L173.489 21.0926H172.611L172.633 27.7624H168.905V11.1781ZM156.344 11.1781H160.049V17.16H162.702V11.1781H166.406V27.7624H162.702V21.1159H160.049V27.7624H156.344V11.1781ZM143.429 27.784H147.289L147.75 24.9172H150.401L150.862 27.784H154.72L151.476 11.2029H146.695L143.429 27.784ZM149.085 16.2239L149.787 21.2704H148.361L149.085 16.2239ZM133.079 27.7624H137.595C138.581 27.7624 142.683 27.3379 142.704 22.313C142.704 18.0953 139.527 17.3594 137.465 17.3594H136.785V15.1588H141.806V11.1789H133.079V27.7624ZM136.785 24.4271V20.6714H137.333C137.793 20.6714 138.979 20.693 138.979 22.4043C138.979 24.1404 137.794 24.4271 137.333 24.4271H136.785ZM118.368 11.1781H121.593L124.44 15.0908L127.315 11.1781H130.515V27.7624H126.719V17.6469L124.44 20.5369L122.161 17.6469V27.7624H118.368V11.1781ZM110.54 27.9634C115.035 27.9634 116.545 23.6928 116.545 19.4486C116.545 15.2045 115.035 10.9347 110.54 10.9347C106.046 10.9347 104.534 15.2045 104.534 19.4486C104.534 23.6928 106.046 27.9634 110.54 27.9634ZM110.54 23.9386C109.2 23.9386 108.523 22.3619 108.523 19.4486C108.523 16.5354 109.2 14.9586 110.54 14.9586C111.879 14.9586 112.556 16.5362 112.556 19.4486C112.556 22.3619 111.879 23.9386 110.54 23.9386ZM93.547 27.7624H97.34V22.2946H98.6123C102.361 22.2946 103.524 18.8705 103.524 16.6891C103.524 14.5558 102.185 11.1781 98.613 11.1781H93.547V27.7624ZM97.34 14.8241H98.2393C99.0951 14.8241 99.6435 15.3574 99.6435 16.7356C99.6435 18.5141 98.7213 18.6454 98.2393 18.6454H97.34V14.8241ZM81.0275 11.1781H91.3762V27.7624H87.5824V15.1796H84.8206V27.7624H81.0275V11.1781ZM73.2439 17.6044C73.8563 17.6044 74.976 17.204 74.976 15.9812C74.976 14.5374 73.6832 14.4461 73.3087 14.4461C72.8709 14.4461 72.0388 14.515 71.2265 14.9146L71.183 11.3111C72.4758 10.9787 73.3972 10.889 74.4924 10.889C77.6083 10.889 78.9888 13.0912 78.9888 15.2453C78.9888 17.337 77.8034 18.6006 76.6426 19.0915V19.2468C77.7608 19.6056 79.2519 20.6914 79.2519 23.2267C79.2519 26.3626 77.1041 28.0955 74.3399 28.0955C72.8709 28.0747 71.906 27.8745 70.7436 27.2306L70.81 23.7825C71.8847 24.2509 72.6078 24.295 73.3316 24.295C74.5596 24.295 75.0408 23.3813 75.0408 22.7174C75.0408 21.7821 74.4498 21.1599 73.1562 21.1599H71.6216V17.6044H73.2439ZM58.3356 27.7624H62.1721L62.6542 24.8932H65.3077L65.7676 27.7624H69.6033L66.3579 11.1781H61.5795L58.3356 27.7624ZM63.9699 16.1806L64.6929 21.2496H63.2452L63.9699 16.1806ZM50.9913 11.1781H58.771V15.3126H54.8484V27.7624H50.9913V11.1781Z" fill="#0D356C"/>
<path d="M1.23208 19.3789C1.23208 29.4384 9.31996 37.6264 19.2617 37.6264C29.1837 37.6264 37.266 29.4352 37.266 19.3789C37.266 9.30428 29.1868 1.11066 19.2617 1.11066C9.31601 1.11066 1.23208 9.30108 1.23208 19.3789ZM0.283813 19.3789C0.283813 8.77016 8.79288 0.149719 19.2617 0.149719C29.7068 0.149719 38.2143 8.77016 38.2143 19.3789C38.2143 29.9661 29.7068 38.5874 19.2617 38.5874C8.79288 38.5874 0.283813 29.9661 0.283813 19.3789Z" fill="#0D356C"/>
<path fill-rule="evenodd" clip-rule="evenodd" d="M13.1933 6.8042C12.445 7.13252 11.8752 7.49047 11.3071 7.88926C15.888 5.82324 21.4811 5.95697 24.4824 7.3135C25.4259 7.75793 26.0597 8.02619 26.3473 8.55711C23.2323 7.71148 21.8952 7.55854 19.2875 7.6234C15.579 7.69147 10.6465 9.17852 8.76179 10.3148L7.93127 11.3607C10.6457 9.73347 15.7118 8.67002 18.5202 8.57954C21.655 8.53709 24.0873 8.82618 26.3252 9.64778C26.1916 10.2243 25.9072 10.5142 25.4251 10.8049C16.4799 9.22577 11.1949 11.0908 6.41484 14.2475L6.06556 15.2909C11.394 11.5817 17.926 10.5607 24.22 11.6714C21.9624 12.4713 19.2654 12.6483 17.0069 13.1784C15.0788 13.6245 14.0476 13.759 11.4794 14.6279C8.874 15.4943 7.33545 16.3832 6.37217 17.5171C5.91147 18.0528 5.56062 18.6734 5.47132 19.3381C5.43102 19.7369 5.45236 20.0956 5.58432 20.4512C5.69021 20.7627 5.93202 21.0734 6.19753 21.3849C5.89172 21.9174 5.62383 22.6085 6.06556 23.4093C6.26233 23.7848 6.76649 24.162 7.25089 24.5215L7.11576 24.9179C7.05018 25.388 6.98617 25.9421 7.29277 26.4074C7.81748 27.2522 8.4536 27.8088 9.46192 28.3429C9.61681 29.0324 9.85624 29.5865 10.3825 30.0782C11.5007 31.1208 14.0017 33.122 18.4507 33.4335C21.7854 33.6577 24.175 32.6335 25.0751 32.1883L26.1703 31.6117C24.307 32.366 21.173 32.8113 18.6047 32.5886C14.8773 32.2771 11.5481 29.8099 11.1309 29.098C11.2605 29.1861 11.4367 29.2534 11.5876 29.3206C15.9528 31.4547 21.587 32.6119 28.8017 29.633L29.396 29.054C22.8372 31.1208 17.0954 31.0559 10.9317 27.7879C10.9989 27.4772 11.1309 27.2058 11.4138 26.9888C12.991 27.6959 14.5059 28.278 16.3479 28.6528C18.4973 29.054 20.9517 29.1445 22.9699 29.054C25.0103 28.9659 29.0427 27.9425 30.9511 26.9207C31.125 26.7661 31.2119 26.5011 31.3873 26.3217C27.663 27.6959 23.2323 28.3429 20.5582 28.1411C17.9489 27.9425 15.6272 27.6302 12.5556 26.2088C13.1508 25.9686 13.758 25.7601 14.3747 25.5842C16.3913 26.2088 18.4514 26.5844 20.8861 26.6973C23.2994 26.8078 28.9329 25.8989 32.4841 23.7208C32.5956 23.4085 32.7038 23.0737 32.7038 23.0737C32.7038 23.0737 27.7705 25.7435 22.1821 25.7435C19.5712 25.7435 17.971 25.364 16.7888 25.0757C19.4171 24.5864 22.7297 24.1852 26.454 23.2307C28.3394 22.7398 30.6643 21.6275 31.7176 20.6962C32.6161 19.8714 33.3186 18.8039 33.0784 17.7189C33.031 17.4266 32.6382 16.7411 32.1554 16.4945C32.6161 15.8939 32.5726 15.3822 32.5086 14.941C32.4628 14.6022 32.3095 14.2283 32.1143 13.8951C31.8061 13.4915 31.5193 13.1784 30.9266 12.8253C31.0159 12.3128 30.9511 11.87 30.752 11.4471C30.2921 10.6464 29.4608 9.95929 28.0344 9.22577C27.9688 8.93508 27.7918 8.55711 27.4868 8.18074C25.6906 6.37978 22.751 5.51253 20.2721 5.46769C20.133 5.46448 19.9955 5.46368 19.8596 5.46368C16.9603 5.46368 14.6339 6.12353 13.1925 6.805L13.1933 6.8042ZM27.2244 11.2502C27.4457 11.0051 27.7713 10.6271 27.8582 10.3148C28.4746 10.7152 29.1755 11.3158 29.2616 11.9388C28.6058 11.6906 27.904 11.4287 27.2244 11.2502ZM27.7713 13.96C26.7211 13.6701 25.8005 13.3138 24.5693 13.0944C25.3177 12.8029 25.8187 12.4938 26.2604 12.1366C27.2434 12.4009 28.1648 12.7372 28.9147 13.0695C28.7859 13.2633 28.0344 13.9672 27.806 13.9672C27.794 13.9679 27.7821 13.9654 27.7713 13.96ZM29.6804 14.7384C29.9633 14.5149 30.2281 14.2739 30.4707 13.9816C31.0602 14.4925 31.2356 14.8489 30.9527 15.4054C30.5592 15.1171 30.1388 14.9594 29.6804 14.7384ZM7.16397 20.2518C5.53849 17.9839 11.1735 16.3624 12.2498 16.0276C14.9895 15.2028 18.1923 14.5838 21.0868 14.2283C23.0782 13.9816 24.1339 14.2066 26.0202 14.7167C21.1737 16.0276 16.3921 16.4472 11.831 17.8054C8.15411 18.888 7.17898 20.2518 7.16397 20.2518ZM8.36747 21.3392C10.0775 19.8706 13.5647 19.0498 14.8378 18.7607C18.8924 17.8718 22.6649 17.3169 24.2208 16.9173C26.1079 16.4472 27.4228 16.0052 28.3402 15.5624C28.3853 15.4943 29.8756 16.227 30.0297 16.4032C29.5264 16.8276 28.8262 17.1848 28.0566 17.4482C25.7554 18.2938 21.5681 19.1811 19.3539 19.5206C17.1176 19.897 15.2503 20.1837 12.7761 20.8475C11.349 21.2287 10.3833 21.6724 9.6816 22.1408C9.15611 21.8285 8.8495 21.742 8.36747 21.34V21.3392ZM11.5489 23.1178C12.2696 22.8071 13.0598 22.5612 13.8247 22.365C17.6857 21.4041 21.0868 21.2279 25.7784 19.9411C28.0352 19.3381 29.6804 18.6918 30.7117 17.8959C30.8642 17.7597 31.0167 17.6492 31.1716 17.5171C32.5308 19.6504 27.4228 21.2952 23.9348 22.0543C22.1107 22.42 20.2831 22.7676 18.4522 23.097C16.1756 23.4749 15.4257 23.6759 13.8484 24.142C13.0598 23.8297 12.2696 23.4965 11.5489 23.1178ZM7.44529 22.4507C7.79693 22.6749 8.05929 22.8543 8.47731 23.0737C8.32322 23.2067 8.12487 23.3412 7.97315 23.4965C7.62388 23.2939 7.26986 22.8543 7.44529 22.4507ZM9.26753 24.4959C9.52201 24.276 9.7928 24.0763 10.0775 23.8985C10.7358 24.2108 11.4146 24.4959 12.0499 24.7866C11.5884 24.9628 11.1727 25.1638 10.825 25.3872C10.3015 25.0979 9.78231 24.8008 9.26753 24.4959ZM8.6962 25.585C9.06918 25.83 9.44138 26.0294 9.81594 26.2312C9.66264 26.4538 9.55122 26.6292 9.48721 26.8542C8.93801 26.3858 8.67329 26.0086 8.69699 25.585H8.6962Z" fill="#0D356C"/>
</svg>
