<svg width="259" height="188" viewBox="0 0 259 188" fill="none" xmlns="http://www.w3.org/2000/svg">
<path d="M71.016 0.799995V75H50.028V46.062H21.408V75H0.42V0.799995H21.408V28.678H50.028V0.799995H71.016ZM118.256 55.284H106.808V75H85.8204V0.799995H119.74C126.454 0.799995 132.284 1.93066 137.23 4.192C142.177 6.38266 145.993 9.56266 148.678 13.732C151.364 17.8307 152.706 22.6713 152.706 28.254C152.706 33.6247 151.434 38.324 148.89 42.352C146.417 46.3093 142.848 49.4187 138.184 51.68L154.19 75H131.718L118.256 55.284ZM131.506 28.254C131.506 24.7913 130.411 22.106 128.22 20.198C126.03 18.29 122.779 17.336 118.468 17.336H106.808V39.066H118.468C122.779 39.066 126.03 38.1473 128.22 36.31C130.411 34.402 131.506 31.7167 131.506 28.254ZM0.42 112.8H21.408V170.358H56.812V187H0.42V112.8ZM122.68 158.38C122.68 158.521 122.574 160.182 122.362 163.362H80.5982C81.4462 166.33 83.0716 168.627 85.4742 170.252C87.9476 171.807 91.0216 172.584 94.6962 172.584C97.4522 172.584 99.8196 172.195 101.798 171.418C103.848 170.641 105.897 169.369 107.946 167.602L118.546 178.626C112.964 184.845 104.802 187.954 94.0602 187.954C87.3469 187.954 81.4462 186.682 76.3582 184.138C71.2702 181.594 67.3129 178.061 64.4862 173.538C61.7302 169.015 60.3522 163.892 60.3522 158.168C60.3522 152.515 61.6949 147.462 64.3802 143.01C67.1362 138.487 70.9169 134.954 75.7222 132.41C80.5276 129.866 85.9336 128.594 91.9402 128.594C97.6642 128.594 102.858 129.795 107.522 132.198C112.186 134.53 115.861 137.957 118.546 142.48C121.302 146.932 122.68 152.232 122.68 158.38ZM92.0462 142.904C88.9369 142.904 86.3222 143.787 84.2022 145.554C82.1529 147.321 80.8456 149.723 80.2802 152.762H103.812C103.247 149.723 101.904 147.321 99.7842 145.554C97.7349 143.787 95.1556 142.904 92.0462 142.904ZM154.899 128.594C164.439 128.594 171.718 130.785 176.735 135.166C181.753 139.477 184.261 146.119 184.261 155.094V187H165.499V179.58C162.602 185.163 156.949 187.954 148.539 187.954C144.087 187.954 140.236 187.177 136.985 185.622C133.735 184.067 131.261 181.983 129.565 179.368C127.94 176.683 127.127 173.644 127.127 170.252C127.127 164.811 129.212 160.606 133.381 157.638C137.551 154.599 143.981 153.08 152.673 153.08H164.121C163.768 147.003 159.705 143.964 151.931 143.964C149.175 143.964 146.384 144.423 143.557 145.342C140.731 146.19 138.328 147.391 136.349 148.946L129.565 135.272C132.745 133.152 136.597 131.527 141.119 130.396C145.713 129.195 150.306 128.594 154.899 128.594ZM154.157 175.234C156.489 175.234 158.539 174.669 160.305 173.538C162.072 172.407 163.344 170.747 164.121 168.556V163.574H155.429C149.564 163.574 146.631 165.517 146.631 169.404C146.631 171.171 147.303 172.584 148.645 173.644C149.988 174.704 151.825 175.234 154.157 175.234ZM258.858 108.348V187H239.672V181.276C235.927 185.728 230.309 187.954 222.818 187.954C217.589 187.954 212.819 186.753 208.508 184.35C204.197 181.877 200.77 178.379 198.226 173.856C195.753 169.333 194.516 164.104 194.516 158.168C194.516 152.232 195.753 147.038 198.226 142.586C200.77 138.063 204.197 134.601 208.508 132.198C212.819 129.795 217.589 128.594 222.818 128.594C229.673 128.594 234.973 130.573 238.718 134.53V108.348H258.858ZM227.058 171.948C230.521 171.948 233.383 170.747 235.644 168.344C237.905 165.871 239.036 162.479 239.036 158.168C239.036 153.928 237.905 150.607 235.644 148.204C233.453 145.801 230.591 144.6 227.058 144.6C223.525 144.6 220.627 145.801 218.366 148.204C216.105 150.607 214.974 153.928 214.974 158.168C214.974 162.479 216.105 165.871 218.366 168.344C220.627 170.747 223.525 171.948 227.058 171.948Z" fill="url(#paint0_linear)"/>
<defs>
<linearGradient id="paint0_linear" x1="239.46" y1="-18.9544" x2="-21.8568" y2="26.1613" gradientUnits="userSpaceOnUse">
<stop stop-color="#5960EA"/>
<stop offset="1" stop-color="#0057B6"/>
</linearGradient>
</defs>
</svg>
