<svg width="476" height="170" viewBox="0 0 476 170" fill="none" xmlns="http://www.w3.org/2000/svg">
<path d="M288.016 0.800049V75.0001H267.028V46.0621H238.408V75.0001H217.42V0.800049H238.408V28.6781H267.028V0.800049H288.016Z" fill="url(#paint0_linear)"/>
<path d="M335.256 55.2841H323.808V75.0001H302.82V0.800049H336.74C343.454 0.800049 349.284 1.93072 354.23 4.19205C359.177 6.38272 362.993 9.56272 365.678 13.7321C368.364 17.8307 369.706 22.6714 369.706 28.2541C369.706 33.6247 368.434 38.3241 365.89 42.3521C363.417 46.3094 359.848 49.4187 355.184 51.6801L371.19 75.0001H348.718L335.256 55.2841ZM348.506 28.2541C348.506 24.7914 347.411 22.1061 345.22 20.1981C343.03 18.2901 339.779 17.3361 335.468 17.3361H323.808V39.0661H335.468C339.779 39.0661 343.03 38.1474 345.22 36.3101C347.411 34.4021 348.506 31.7167 348.506 28.2541Z" fill="url(#paint1_linear)"/>
<path d="M217.42 94.8H238.408V152.358H273.812V169H217.42V94.8Z" fill="url(#paint2_linear)"/>
<path d="M339.68 140.38C339.68 140.521 339.574 142.182 339.362 145.362H297.598C298.446 148.33 300.072 150.627 302.474 152.252C304.948 153.807 308.022 154.584 311.696 154.584C314.452 154.584 316.82 154.195 318.798 153.418C320.848 152.641 322.897 151.369 324.946 149.602L335.546 160.626C329.964 166.845 321.802 169.954 311.06 169.954C304.347 169.954 298.446 168.682 293.358 166.138C288.27 163.594 284.313 160.061 281.486 155.538C278.73 151.015 277.352 145.892 277.352 140.168C277.352 134.515 278.695 129.462 281.38 125.01C284.136 120.487 287.917 116.954 292.722 114.41C297.528 111.866 302.934 110.594 308.94 110.594C314.664 110.594 319.858 111.795 324.522 114.198C329.186 116.53 332.861 119.957 335.546 124.48C338.302 128.932 339.68 134.232 339.68 140.38ZM309.046 124.904C305.937 124.904 303.322 125.787 301.202 127.554C299.153 129.321 297.846 131.723 297.28 134.762H320.812C320.247 131.723 318.904 129.321 316.784 127.554C314.735 125.787 312.156 124.904 309.046 124.904Z" fill="url(#paint3_linear)"/>
<path d="M371.899 110.594C381.439 110.594 388.718 112.785 393.735 117.166C398.753 121.477 401.261 128.119 401.261 137.094V169H382.499V161.58C379.602 167.163 373.949 169.954 365.539 169.954C361.087 169.954 357.236 169.177 353.985 167.622C350.735 166.067 348.261 163.983 346.565 161.368C344.94 158.683 344.127 155.644 344.127 152.252C344.127 146.811 346.212 142.606 350.381 139.638C354.551 136.599 360.981 135.08 369.673 135.08H381.121C380.768 129.003 376.705 125.964 368.931 125.964C366.175 125.964 363.384 126.423 360.557 127.342C357.731 128.19 355.328 129.391 353.349 130.946L346.565 117.272C349.745 115.152 353.597 113.527 358.119 112.396C362.713 111.195 367.306 110.594 371.899 110.594ZM371.157 157.234C373.489 157.234 375.539 156.669 377.305 155.538C379.072 154.407 380.344 152.747 381.121 150.556V145.574H372.429C366.564 145.574 363.631 147.517 363.631 151.404C363.631 153.171 364.303 154.584 365.645 155.644C366.988 156.704 368.825 157.234 371.157 157.234Z" fill="url(#paint4_linear)"/>
<path d="M475.858 90.3481V169H456.672V163.276C452.927 167.728 447.309 169.954 439.818 169.954C434.589 169.954 429.819 168.753 425.508 166.35C421.197 163.877 417.77 160.379 415.226 155.856C412.753 151.333 411.516 146.104 411.516 140.168C411.516 134.232 412.753 129.038 415.226 124.586C417.77 120.063 421.197 116.601 425.508 114.198C429.819 111.795 434.589 110.594 439.818 110.594C446.673 110.594 451.973 112.573 455.718 116.53V90.3481H475.858ZM444.058 153.948C447.521 153.948 450.383 152.747 452.644 150.344C454.905 147.871 456.036 144.479 456.036 140.168C456.036 135.928 454.905 132.607 452.644 130.204C450.453 127.801 447.591 126.6 444.058 126.6C440.525 126.6 437.627 127.801 435.366 130.204C433.105 132.607 431.974 135.928 431.974 140.168C431.974 144.479 433.105 147.871 435.366 150.344C437.627 152.747 440.525 153.948 444.058 153.948Z" fill="url(#paint5_linear)"/>
<path d="M183.044 112.156V71.8548C184.766 71.2904 186.351 70.3731 187.698 69.1616C189.044 67.9501 190.122 66.471 190.863 64.8193C191.604 63.1675 191.991 61.3795 192 59.5696C192.009 57.7598 191.639 55.9681 190.914 54.3093C190.189 52.6505 189.125 51.1612 187.79 49.9368C186.456 48.7123 184.88 47.7798 183.163 47.199C181.447 46.6181 179.628 46.4016 177.823 46.5635C176.017 46.7254 174.266 47.262 172.681 48.139L144.894 20.1481C145.745 18.5597 146.257 16.812 146.395 15.0158C146.534 13.2196 146.298 11.4142 145.7 9.71427C145.103 8.0143 144.159 6.4569 142.927 5.14094C141.695 3.82498 140.202 2.7792 138.544 2.07001C136.885 1.36082 135.097 1.00371 133.294 1.02134C131.49 1.03898 129.709 1.43097 128.065 2.17245C126.421 2.91393 124.949 3.98868 123.743 5.32848C122.537 6.66827 121.623 8.24384 121.059 9.95515H70.9408C70.3841 8.25564 69.4822 6.68915 68.2915 5.35367C67.1008 4.0182 65.6469 2.94249 64.0208 2.19385C62.3947 1.44521 60.6314 1.03975 58.8412 1.00283C57.051 0.965915 55.2724 1.29834 53.6168 1.97931C51.9611 2.66028 50.464 3.67513 49.2191 4.96038C47.9742 6.24563 47.0083 7.77361 46.3818 9.44872C45.7554 11.1238 45.4818 12.91 45.5783 14.6955C45.6748 16.4811 46.1393 18.2275 46.9426 19.8256L18.8399 47.8871C17.2238 47.0789 15.4568 46.6158 13.6515 46.5273C11.8462 46.4387 10.0422 46.7267 8.35453 47.3729C6.66685 48.019 5.13248 49.0092 3.84918 50.2803C2.56589 51.5514 1.56183 53.0755 0.900977 54.7555C0.240129 56.4355 -0.06301 58.2346 0.0108785 60.0381C0.0847671 61.8415 0.534063 63.6099 1.33013 65.2303C2.1262 66.8508 3.25159 68.2879 4.63457 69.4501C6.01755 70.6122 7.6278 71.4739 9.3627 71.9803V89.2839C7.58349 89.8035 5.93595 90.6967 4.53041 91.9036C3.12486 93.1106 1.99373 94.6034 1.21275 96.2823C0.431777 97.9612 0.0189718 99.7873 0.00197534 101.638C-0.0150211 103.49 0.364183 105.323 1.1142 107.016C1.86422 108.709 2.96775 110.222 4.35089 111.454C5.73404 112.687 7.3649 113.61 9.13427 114.162C10.9036 114.714 12.7707 114.882 14.6105 114.656C16.4502 114.429 18.2202 113.812 19.8019 112.847L24.6304 117.839C23.675 119.436 23.0742 121.22 22.8685 123.069C22.6629 124.918 22.8573 126.79 23.4386 128.558C24.0199 130.326 24.9745 131.948 26.2379 133.316C27.5012 134.683 29.0439 135.764 30.7616 136.485C32.4793 137.205 34.3319 137.549 36.1942 137.494C38.0565 137.438 39.8851 136.983 41.5563 136.16C43.2275 135.338 44.7024 134.167 45.8811 132.726C47.0599 131.285 47.9152 129.608 48.389 127.809L85.0879 127.978C85.5684 129.705 86.4017 131.315 87.5355 132.706C88.6692 134.097 90.0789 135.238 91.6758 136.058C93.2727 136.879 95.0223 137.36 96.8146 137.472C98.6068 137.585 100.403 137.325 102.09 136.711L110.419 148.671C109.174 150.159 108.279 151.907 107.799 153.786C107.319 155.665 107.266 157.627 107.644 159.529C108.022 161.431 108.822 163.225 109.984 164.778C111.147 166.331 112.643 167.605 114.362 168.506C116.082 169.407 117.981 169.912 119.922 169.984C121.862 170.056 123.794 169.694 125.576 168.923C127.358 168.153 128.945 166.994 130.22 165.532C131.495 164.069 132.426 162.34 132.945 160.472H156.677C157.239 162.501 158.287 164.363 159.729 165.898C161.172 167.433 162.966 168.595 164.958 169.284C166.95 169.973 169.08 170.169 171.164 169.854C173.248 169.539 175.225 168.724 176.924 167.478C178.623 166.231 179.993 164.591 180.917 162.699C181.84 160.807 182.29 158.719 182.227 156.615C182.164 154.511 181.59 152.453 180.554 150.62C179.519 148.786 178.053 147.231 176.282 146.089L179.094 137.495C182.178 137.467 185.152 136.347 187.486 134.333C189.819 132.319 191.361 129.543 191.835 126.499C192.31 123.456 191.686 120.343 190.076 117.716C188.466 115.089 185.974 113.119 183.044 112.156ZM120.405 143.998C118.797 143.997 117.202 144.296 115.703 144.879L107.446 133.02C108.7 131.583 109.622 129.888 110.146 128.055L166.484 128.136C166.51 128.224 166.534 128.313 166.562 128.4L130.03 148.254C128.812 146.913 127.326 145.842 125.669 145.108C124.011 144.375 122.218 143.997 120.405 143.998ZM89.6483 114.242L63.9894 93.973C64.2024 93.49 64.3855 92.9945 64.5377 92.4892H88.4139C89.0035 94.4368 90.0408 96.2199 91.443 97.6962C92.8453 99.1724 94.5737 100.301 96.4902 100.992L95.5901 111.665C93.423 112.008 91.3784 112.894 89.6483 114.242ZM35.8013 111.502C33.5023 111.501 31.2444 112.111 29.26 113.27L24.3331 108.175C25.4529 106.22 26.0412 104.006 26.0394 101.754C26.0386 101.267 26.0107 100.781 25.9556 100.297L41.2209 95.9243C42.053 97.1756 43.0942 98.2747 44.2991 99.1738L38.1943 111.725C37.4052 111.577 36.6041 111.503 35.8013 111.502ZM21.387 69.4594L40.0869 83.6854C39.4044 85.2889 39.0535 87.0136 39.0553 88.7559C39.0553 89.0979 39.0728 89.4358 39.0989 89.7713L23.6115 94.2082C21.7501 91.6054 18.9948 89.7776 15.8707 89.0731V72.1911C17.9022 71.7356 19.7943 70.7987 21.387 69.4594ZM58.5793 27.0151C59.3865 27.0143 60.192 26.9385 60.9852 26.7889L66.9583 39.4356C64.2683 41.4844 62.4822 44.4981 61.9781 47.8388L24.5979 53.5734C24.3478 53.088 24.0674 52.6187 23.7583 52.1684L51.2293 24.736C53.3911 26.2225 55.9545 27.0174 58.5793 27.0151ZM87.6032 52.3613H104.397C105.033 55.4481 106.768 58.1998 109.281 60.1057L102.752 75.8939C100.644 75.5864 98.4929 75.8021 96.4882 76.5219L84.7645 58.1698C86.1868 56.5041 87.1634 54.5058 87.6032 52.3613ZM133.421 27.0151C135.926 27.0171 138.377 26.2928 140.478 24.9301L167.954 52.6095C167.591 53.183 167.275 53.7841 167.007 54.4073L130.045 48.0094C129.587 44.6694 127.848 41.6376 125.194 39.5542L130.914 26.7714C131.74 26.9335 132.579 27.0151 133.421 27.0151ZM166.283 121.636L110.302 121.555C110.177 121.013 110.016 120.48 109.821 119.959L138.416 98.9797C140.348 100.498 142.672 101.436 145.118 101.686C147.563 101.936 150.03 101.487 152.23 100.391L168.152 117.295C167.267 118.615 166.634 120.087 166.283 121.636ZM113.597 85.9897C112.934 82.9691 111.216 80.2828 108.751 78.4119L115.28 62.6237C115.9 62.7138 116.525 62.7592 117.151 62.7598C118.949 62.7606 120.727 62.387 122.372 61.6631L136.138 80.8198C134.958 82.3417 134.132 84.1075 133.721 85.9885L113.597 85.9897ZM100.881 95.2549C99.5939 95.2549 98.3357 94.8738 97.2655 94.1596C96.1952 93.4455 95.3611 92.4305 94.8685 91.2429C94.3759 90.0554 94.2471 88.7487 94.4982 87.488C94.7493 86.2273 95.3691 85.0693 96.2793 84.1604C97.1894 83.2515 98.349 82.6325 99.6115 82.3817C100.874 82.131 102.182 82.2597 103.372 82.7516C104.561 83.2435 105.577 84.0765 106.292 85.1452C107.007 86.214 107.389 87.4705 107.389 88.7559C107.387 90.4789 106.701 92.1308 105.481 93.3491C104.261 94.5675 102.606 95.2529 100.881 95.2549ZM88.1649 85.9897H64.7875C64.2951 83.7376 63.2108 81.6571 61.6461 79.9623L71.4842 62.317C74.1128 63.0211 76.8966 62.8827 79.4422 61.9214L91.1073 80.1853C89.6485 81.8389 88.6358 83.8366 88.1649 85.9897ZM44.0506 78.5305L25.1718 64.1684C25.694 62.8134 25.9837 61.3802 26.0288 59.929L62.6573 54.311C63.3412 56.1272 64.4225 57.7681 65.8222 59.1138L56.1713 76.4223C54.1341 75.7442 51.9601 75.5819 49.8445 75.9498C47.7289 76.3178 45.7384 77.2045 44.0506 78.5305ZM152.945 88.7559C152.945 90.0413 152.563 91.2978 151.848 92.3665C151.133 93.4353 150.117 94.2683 148.927 94.7602C147.738 95.2521 146.43 95.3808 145.167 95.13C143.905 94.8793 142.745 94.2603 141.835 93.3514C140.925 92.4425 140.305 91.2845 140.054 90.0238C139.803 88.7631 139.932 87.4563 140.424 86.2688C140.917 85.0813 141.751 84.0663 142.821 83.3521C143.892 82.638 145.15 82.2568 146.437 82.2568C148.162 82.2589 149.816 82.9443 151.037 84.1626C152.257 85.381 152.943 87.0329 152.945 88.7559ZM153.95 78.1543C152.131 76.8632 150.008 76.0627 147.788 75.8303C145.568 75.5978 143.326 75.9412 141.277 76.8273L127.492 57.6418C128.233 56.6746 128.835 55.608 129.278 54.4735L166.028 60.834C166.218 62.6935 166.81 64.4897 167.763 66.0982L153.95 78.1543ZM123.659 49.7617C123.659 51.0471 123.277 52.3036 122.562 53.3724C121.847 54.4411 120.831 55.2741 119.642 55.766C118.452 56.2579 117.144 56.3866 115.881 56.1359C114.619 55.8851 113.459 55.2661 112.549 54.3572C111.639 53.4483 111.019 52.2903 110.768 51.0296C110.517 49.7689 110.646 48.4622 111.138 47.2746C111.631 46.0871 112.465 45.0721 113.535 44.358C114.606 43.6438 115.864 43.2627 117.151 43.2627C118.876 43.2647 120.531 43.9501 121.751 45.1685C122.971 46.3868 123.657 48.0387 123.659 49.7617ZM74.8492 56.2607C73.562 56.2607 72.3038 55.8796 71.2336 55.1655C70.1633 54.4513 69.3292 53.4363 68.8366 52.2488C68.344 51.0612 68.2152 49.7545 68.4663 48.4938C68.7174 47.2331 69.3372 46.0751 70.2474 45.1662C71.1575 44.2573 72.3171 43.6383 73.5796 43.3876C74.842 43.1368 76.1505 43.2655 77.3397 43.7574C78.5289 44.2493 79.5453 45.0823 80.2604 46.151C80.9755 47.2198 81.3572 48.4763 81.3572 49.7617C81.3551 51.4847 80.6688 53.1366 79.4488 54.355C78.2287 55.5733 76.5746 56.2587 74.8492 56.2607ZM45.5633 88.7559C45.5633 87.4705 45.945 86.214 46.6601 85.1452C47.3752 84.0765 48.3916 83.2435 49.5808 82.7516C50.77 82.2597 52.0785 82.131 53.3409 82.3817C54.6034 82.6325 55.763 83.2515 56.6731 84.1604C57.5833 85.0693 58.2031 86.2273 58.4542 87.488C58.7053 88.7487 58.5764 90.0554 58.0839 91.2429C57.5913 92.4305 56.7572 93.4455 55.6869 94.1596C54.6167 94.8738 53.3584 95.2549 52.0713 95.2549C50.3459 95.2529 48.6918 94.5675 47.4717 93.3491C46.2517 92.1308 45.5654 90.4789 45.5633 88.7559ZM102.972 101.584C105.38 101.188 107.628 100.126 109.462 98.5179C111.296 96.9103 112.642 94.8216 113.348 92.4888H133.97C134.105 92.942 134.266 93.3875 134.45 93.8231L106.087 114.634C104.9 113.616 103.539 112.819 102.07 112.283L102.972 101.584ZM173.001 112.957L157.148 96.127C158.455 94.2401 159.236 92.041 159.414 89.7539C159.592 87.4668 159.159 85.1736 158.159 83.1082L172.373 70.7032C173.66 71.4637 175.068 71.9959 176.536 72.276V111.735C175.305 111.969 174.114 112.382 173.001 112.959V112.957ZM185.485 59.5103C185.485 60.7956 185.103 62.0522 184.388 63.1209C183.673 64.1897 182.656 65.0227 181.467 65.5146C180.278 66.0065 178.97 66.1352 177.707 65.8844C176.445 65.6336 175.285 65.0147 174.375 64.1058C173.465 63.1968 172.845 62.0388 172.594 60.7781C172.343 59.5175 172.472 58.2107 172.964 57.0232C173.457 55.8356 174.291 54.8206 175.361 54.1065C176.431 53.3924 177.69 53.0112 178.977 53.0112C180.702 53.0133 182.356 53.6986 183.576 54.917C184.796 56.1354 185.483 57.7872 185.485 59.5103ZM133.421 7.51802C134.708 7.51802 135.966 7.89918 137.037 8.6133C138.107 9.32742 138.941 10.3424 139.434 11.53C139.926 12.7175 140.055 14.0243 139.804 15.2849C139.553 16.5456 138.933 17.7036 138.023 18.6126C137.113 19.5215 135.953 20.1404 134.691 20.3912C133.428 20.642 132.12 20.5133 130.93 20.0214C129.741 19.5295 128.725 18.6965 128.01 17.6277C127.295 16.559 126.913 15.3024 126.913 14.017C126.915 12.294 127.601 10.6422 128.821 9.4238C130.041 8.20543 131.696 7.52006 133.421 7.51802ZM71.3625 16.4542H120.638C121.201 19.3858 122.757 22.0345 125.045 23.9557L119.239 36.933C116.15 36.4299 112.983 37.0559 110.319 38.696C107.655 40.3361 105.672 42.8804 104.734 45.8623H87.266C86.3381 42.9129 84.3875 40.3906 81.7646 38.7484C79.1417 37.1062 76.0185 36.4517 72.9558 36.9026L66.8753 24.0264C69.2066 22.0996 70.7932 19.4222 71.3625 16.4542ZM58.5793 7.51802C59.8664 7.51802 61.1247 7.89918 62.1949 8.6133C63.2651 9.32742 64.0993 10.3424 64.5919 11.53C65.0844 12.7175 65.2133 14.0243 64.9622 15.2849C64.7111 16.5456 64.0912 17.7036 63.1811 18.6126C62.2709 19.5215 61.1113 20.1404 59.8489 20.3912C58.5865 20.642 57.2779 20.5133 56.0888 20.0214C54.8996 19.5295 53.8832 18.6965 53.1681 17.6277C52.453 16.559 52.0713 15.3024 52.0713 14.017C52.0733 12.294 52.7597 10.6422 53.9797 9.4238C55.1997 8.20543 56.8539 7.52006 58.5793 7.51802ZM6.51546 59.5103C6.51546 58.2249 6.89715 56.9683 7.61225 55.8996C8.32736 54.8308 9.34376 53.9978 10.5329 53.5059C11.7221 53.014 13.0307 52.8853 14.2931 53.1361C15.5555 53.3869 16.7151 54.0058 17.6253 54.9147C18.5354 55.8237 19.1553 56.9817 19.4064 58.2424C19.6575 59.503 19.5286 60.8098 19.036 61.9973C18.5434 63.1849 17.7093 64.1999 16.6391 64.914C15.5688 65.6281 14.3106 66.0093 13.0234 66.0093C11.298 66.0072 9.6439 65.3219 8.42386 64.1035C7.20382 62.8851 6.5175 61.2333 6.51546 59.5103ZM13.0234 108.253C11.7363 108.253 10.478 107.872 9.4078 107.158C8.33757 106.444 7.50342 105.429 7.01085 104.241C6.51828 103.053 6.3894 101.747 6.64051 100.486C6.89162 99.2253 7.51144 98.0673 8.4216 97.1584C9.33176 96.2495 10.4914 95.6306 11.7538 95.3798C13.0162 95.129 14.3248 95.2577 15.5139 95.7496C16.7031 96.2415 17.7195 97.0745 18.4346 98.1433C19.1497 99.212 19.5314 100.469 19.5314 101.754C19.5294 103.477 18.843 105.129 17.623 106.347C16.403 107.566 14.7488 108.251 13.0234 108.253ZM35.8013 131C34.5142 131 33.2559 130.618 32.1857 129.904C31.1155 129.19 30.2813 128.175 29.7888 126.988C29.2962 125.8 29.1673 124.493 29.4184 123.233C29.6695 121.972 30.2894 120.814 31.1995 119.905C32.1097 118.996 33.2693 118.377 34.5317 118.126C35.7941 117.876 37.1027 118.004 38.2918 118.496C39.481 118.988 40.4974 119.821 41.2125 120.89C41.9276 121.959 42.3093 123.215 42.3093 124.501C42.3073 126.224 41.621 127.875 40.4009 129.094C39.1809 130.312 37.5267 130.998 35.8013 131ZM44.0876 114.484L50.3377 101.635C50.9123 101.713 51.4914 101.753 52.0713 101.754C54.9259 101.756 57.7012 100.816 59.9655 99.0804L85.6646 119.383C85.3738 120.06 85.1415 120.761 84.9703 121.478L48.4191 121.31C47.7367 118.634 46.2198 116.243 44.0876 114.484ZM91.1191 124.501C91.1191 123.215 91.5008 121.959 92.2159 120.89C92.931 119.821 93.9475 118.988 95.1366 118.496C96.3258 118.004 97.6343 117.876 98.8968 118.126C100.159 118.377 101.319 118.996 102.229 119.905C103.139 120.814 103.759 121.972 104.01 123.233C104.261 124.493 104.132 125.8 103.64 126.988C103.147 128.175 102.313 129.19 101.243 129.904C100.173 130.618 98.9143 131 97.6271 131C95.9017 130.998 94.2476 130.312 93.0275 129.094C91.8075 127.875 91.1212 126.224 91.1191 124.501ZM120.405 163.495C119.118 163.495 117.86 163.114 116.789 162.399C115.719 161.685 114.885 160.67 114.392 159.483C113.9 158.295 113.771 156.988 114.022 155.728C114.273 154.467 114.893 153.309 115.803 152.4C116.713 151.491 117.873 150.872 119.135 150.622C120.398 150.371 121.706 150.499 122.896 150.991C124.085 151.483 125.101 152.316 125.816 153.385C126.531 154.454 126.913 155.71 126.913 156.996C126.911 158.719 126.225 160.371 125.005 161.589C123.785 162.807 122.13 163.493 120.405 163.495ZM169.215 163.495C167.928 163.495 166.669 163.114 165.599 162.399C164.529 161.685 163.695 160.67 163.202 159.483C162.71 158.295 162.581 156.988 162.832 155.728C163.083 154.467 163.703 153.309 164.613 152.4C165.523 151.491 166.683 150.872 167.945 150.622C169.208 150.371 170.516 150.499 171.705 150.991C172.895 151.483 173.911 152.316 174.626 153.385C175.341 154.454 175.723 155.71 175.723 156.996C175.721 158.719 175.034 160.371 173.814 161.589C172.594 162.807 170.94 163.493 169.215 163.495ZM169.215 143.998C166.29 144.002 163.452 144.988 161.157 146.797C158.861 148.606 157.241 151.134 156.558 153.974H133.12L170.02 133.918C170.844 134.702 171.766 135.374 172.763 135.919L170.11 144.032C169.813 144.011 169.516 143.998 169.215 143.998ZM178.977 131C177.69 131 176.431 130.618 175.361 129.904C174.291 129.19 173.457 128.175 172.964 126.988C172.472 125.8 172.343 124.493 172.594 123.233C172.845 121.972 173.465 120.814 174.375 119.905C175.285 118.996 176.445 118.377 177.707 118.126C178.97 117.876 180.278 118.004 181.467 118.496C182.656 118.988 183.673 119.821 184.388 120.89C185.103 121.959 185.485 123.215 185.485 124.501C185.483 126.224 184.796 127.875 183.576 129.094C182.356 130.312 180.702 130.998 178.977 131Z" fill="url(#paint6_linear)"/>
<defs>
<linearGradient id="paint0_linear" x1="429.598" y1="0.834507" x2="24.7809" y2="162.115" gradientUnits="userSpaceOnUse">
<stop stop-color="#5960EA"/>
<stop offset="1" stop-color="#0057B6"/>
</linearGradient>
<linearGradient id="paint1_linear" x1="429.598" y1="0.834507" x2="24.7809" y2="162.115" gradientUnits="userSpaceOnUse">
<stop stop-color="#5960EA"/>
<stop offset="1" stop-color="#0057B6"/>
</linearGradient>
<linearGradient id="paint2_linear" x1="429.598" y1="0.834507" x2="24.7809" y2="162.115" gradientUnits="userSpaceOnUse">
<stop stop-color="#5960EA"/>
<stop offset="1" stop-color="#0057B6"/>
</linearGradient>
<linearGradient id="paint3_linear" x1="429.598" y1="0.834507" x2="24.7809" y2="162.115" gradientUnits="userSpaceOnUse">
<stop stop-color="#5960EA"/>
<stop offset="1" stop-color="#0057B6"/>
</linearGradient>
<linearGradient id="paint4_linear" x1="429.598" y1="0.834507" x2="24.7809" y2="162.115" gradientUnits="userSpaceOnUse">
<stop stop-color="#5960EA"/>
<stop offset="1" stop-color="#0057B6"/>
</linearGradient>
<linearGradient id="paint5_linear" x1="429.598" y1="0.834507" x2="24.7809" y2="162.115" gradientUnits="userSpaceOnUse">
<stop stop-color="#5960EA"/>
<stop offset="1" stop-color="#0057B6"/>
</linearGradient>
<linearGradient id="paint6_linear" x1="429.598" y1="0.834507" x2="24.7809" y2="162.115" gradientUnits="userSpaceOnUse">
<stop stop-color="#5960EA"/>
<stop offset="1" stop-color="#0057B6"/>
</linearGradient>
</defs>
</svg>
