<?xml version="1.0" standalone="no"?>
<!DOCTYPE svg PUBLIC "-//W3C//DTD SVG 20010904//EN"
 "http://www.w3.org/TR/2001/REC-SVG-20010904/DTD/svg10.dtd">
<svg version="1.0" xmlns="http://www.w3.org/2000/svg"
 width="300.000000pt" height="297.000000pt" viewBox="0 0 300.000000 297.000000"
 preserveAspectRatio="xMidYMid meet">

<g transform="translate(0.000000,297.000000) scale(0.100000,-0.100000)"
fill="#000000" stroke="none">
<path d="M1225 2955 c-410 -77 -724 -435 -725 -825 0 -50 -3 -56 -29 -71 -80
-46 -115 -281 -67 -444 22 -73 70 -142 120 -173 42 -26 45 -31 66 -108 19 -74
20 -89 9 -169 -17 -127 -9 -178 31 -220 18 -19 65 -51 104 -71 58 -31 67 -39
51 -45 -11 -4 -166 -17 -345 -28 -179 -12 -351 -24 -382 -28 l-58 -6 0 -278
c0 -268 1 -279 19 -279 10 0 142 -9 293 -20 150 -11 370 -27 488 -35 118 -8
469 -33 780 -55 311 -22 585 -41 609 -42 l43 -3 47 85 46 85 3 -87 c3 -82 4
-88 25 -92 12 -3 132 -12 267 -21 135 -9 274 -19 309 -22 l64 -6 -6 224 c-3
123 -1 342 5 487 6 145 8 266 5 269 -4 3 -140 -4 -304 -16 -164 -12 -306 -21
-315 -21 -11 0 -32 -28 -60 -82 l-43 -83 -3 79 -3 79 -75 -7 -75 -7 25 48 c13
27 29 69 36 93 6 25 38 134 71 242 32 108 59 205 59 216 0 11 -7 33 -15 48 -9
18 -15 57 -15 101 0 69 1 73 25 79 39 10 92 77 112 141 27 88 24 281 -6 398
-29 110 -84 241 -134 317 -52 78 -171 188 -253 234 -152 85 -375 135 -597 133
-73 0 -163 -7 -202 -14z m453 -101 c160 -33 285 -98 404 -212 99 -95 171 -203
203 -305 37 -117 36 -121 -27 -86 -120 66 -266 99 -439 99 -135 0 -253 -21
-402 -70 -224 -75 -427 -196 -579 -346 -43 -42 -80 -75 -82 -73 -2 2 -11 20
-21 39 -24 48 -53 78 -98 101 -21 11 -40 26 -43 34 -10 25 17 198 42 275 41
121 106 224 208 325 125 124 246 186 428 219 104 20 312 19 406 0z m300 -550
c98 -20 214 -75 242 -115 12 -16 20 -32 18 -34 -2 -3 -30 4 -61 15 -158 56
-454 65 -661 20 -206 -44 -422 -133 -581 -239 -101 -68 -107 -69 -40 -6 111
105 310 224 480 288 66 25 229 71 285 80 64 11 247 6 318 -9z m65 -130 c146
-28 204 -51 258 -103 60 -58 71 -102 12 -51 -91 80 -228 113 -468 113 -149 0
-186 -3 -300 -28 -193 -41 -182 -40 -190 -15 -5 15 -2 25 6 31 23 14 218 58
304 68 98 12 273 5 378 -15z m-12 -78 c48 -8 97 -19 109 -26 35 -19 70 -105
70 -177 0 -34 -5 -74 -12 -90 -7 -17 -12 -87 -12 -183 l-1 -155 -70 -160 c-65
-147 -73 -161 -106 -177 -33 -15 -37 -22 -42 -65 -7 -65 -47 -100 -157 -137
-111 -38 -280 -47 -379 -21 -128 33 -279 132 -404 265 -102 107 -156 203 -222
392 l-37 106 31 39 c122 152 432 305 745 368 67 13 137 26 156 28 84 9 252 6
331 -7z m-701 -16 c9 -17 7 -22 -16 -32 -23 -11 -28 -10 -40 7 -18 25 -18 33
4 38 33 9 41 7 52 -13z m-90 -29 c9 -18 -1 -25 -114 -79 -120 -58 -283 -160
-321 -202 -21 -24 -35 -26 -35 -5 0 17 90 93 188 158 69 46 250 146 264 147 4
0 12 -9 18 -19z m1022 -34 c59 -45 91 -93 77 -118 -10 -20 -51 -45 -83 -51
-16 -3 -18 5 -21 62 -1 36 -9 79 -18 97 -29 55 -18 58 45 10z m-1614 -47 c22
-14 43 -40 60 -78 24 -51 27 -69 27 -167 0 -118 -14 -167 -49 -173 -15 -3 -17
0 -11 14 4 11 14 43 22 73 27 99 -12 261 -78 322 -36 33 -19 38 29 9z m-28
-50 c38 -40 55 -109 55 -217 0 -107 -19 -146 -72 -151 -38 -4 -63 25 -94 106
-23 62 -28 186 -10 233 24 65 76 77 121 29z m188 -457 c54 -128 123 -234 212
-327 105 -110 249 -209 355 -246 l50 -17 -65 -6 c-197 -19 -296 -20 -351 -2
-75 24 -216 98 -262 138 l-39 32 12 115 11 115 -40 128 c-41 133 -41 133 9
139 16 2 30 13 39 33 13 27 15 28 22 10 5 -11 26 -61 47 -112z m1418 0 c-3
-10 -22 -79 -41 -153 -28 -104 -45 -148 -74 -190 -21 -30 -46 -76 -55 -101
-10 -26 -32 -60 -49 -77 -28 -26 -42 -31 -107 -36 l-75 -6 66 34 c67 35 155
120 185 177 8 16 39 100 69 187 31 86 57 163 60 170 7 19 27 14 21 -5z m680
-810 c-4 -131 -9 -255 -12 -277 l-6 -39 -76 7 c-43 3 -79 11 -84 19 -4 6 -8
44 -8 83 0 39 -3 152 -7 252 l-6 181 49 4 c27 2 73 4 103 5 l54 2 -7 -237z
m-306 -157 c0 -206 -4 -377 -8 -380 -5 -3 -46 -2 -93 2 l-84 7 -5 213 -5 214
-109 -204 c-60 -112 -110 -204 -111 -206 -2 -2 -37 0 -79 4 l-76 7 0 337 0
337 53 7 c28 3 62 6 75 6 l22 0 0 -200 c0 -110 3 -200 8 -200 4 0 56 94 115
210 l109 209 56 4 c32 2 74 4 95 5 l37 2 0 -374z m-660 -6 l0 -330 -39 0 c-21
0 -53 3 -70 6 l-31 7 0 255 0 255 -31 -7 c-17 -3 -39 -6 -49 -6 -15 0 -20 -30
-45 -237 -15 -131 -31 -242 -35 -246 -8 -9 -247 6 -257 17 -5 4 -10 35 -13 69
l-5 62 -61 3 -62 3 -4 -60 c-2 -33 -7 -63 -10 -67 -4 -3 -50 -2 -104 3 l-98 8
-29 108 c-18 64 -34 106 -41 104 -6 -2 -17 -23 -24 -48 -8 -24 -21 -69 -31
-99 l-16 -55 -40 3 c-22 2 -41 5 -43 7 -2 2 12 59 32 127 l36 123 -34 120
c-33 119 -33 120 -12 128 11 4 31 7 45 5 23 -3 27 -12 49 -100 15 -60 29 -98
37 -98 7 0 20 29 29 68 38 154 30 140 86 144 29 2 50 -1 50 -7 0 -5 -16 -62
-35 -125 -19 -63 -35 -124 -35 -134 0 -10 17 -73 37 -139 45 -145 43 -150 68
173 10 124 20 228 24 232 6 7 252 30 258 24 2 -1 13 -113 25 -247 11 -134 25
-248 30 -253 4 -6 8 -1 8 12 0 15 6 22 20 22 11 0 20 2 20 4 0 15 52 471 54
473 4 4 215 20 284 22 l62 1 0 -330z m-1152 216 c2 -15 1 -39 -2 -52 -6 -23
-10 -24 -86 -24 l-80 0 0 -45 0 -45 40 0 40 0 0 -50 0 -50 -40 0 -40 0 0 -45
0 -44 82 -3 c92 -3 96 -7 83 -74 l-6 -35 -92 6 c-51 4 -102 8 -114 11 l-23 4
0 235 0 234 73 4 c39 2 92 3 117 3 42 -1 45 -3 48 -30z m-278 -210 c0 -124 -4
-227 -9 -230 -5 -3 -52 -3 -105 1 l-96 6 0 218 0 218 53 4 c28 2 76 4 105 5
l52 2 0 -224z m-250 -7 l0 -210 -27 3 -28 3 -3 163 -2 162 -30 0 -30 0 0 -160
0 -160 -30 0 -30 0 0 199 c0 229 -12 207 113 210 l67 1 0 -211z m2634 -235
c13 -5 16 -22 16 -87 l0 -80 -67 6 c-38 4 -83 7 -100 7 l-33 0 0 80 0 80 84 0
c46 0 91 -3 100 -6z"/>
<path d="M1692 2648 c-19 -19 -14 -87 9 -125 38 -62 130 -86 137 -35 4 24 -16
30 -35 11 -19 -19 -59 14 -79 66 -14 37 -15 48 -5 58 10 9 16 7 28 -10 19 -28
33 -29 33 -4 0 37 -62 65 -88 39z"/>
<path d="M1470 2637 c-14 -7 -31 -26 -39 -42 -42 -87 87 -195 167 -139 32 22
28 86 -5 66 -6 -4 -12 -16 -14 -27 -7 -32 -43 -30 -72 5 -48 57 -46 143 3 112
26 -16 40 -15 40 3 0 13 -29 35 -47 35 -4 0 -19 -6 -33 -13z"/>
<path d="M1880 2622 c0 -5 14 -40 30 -77 17 -37 30 -73 30 -81 0 -8 9 -14 21
-14 16 0 19 4 15 17 -4 9 1 23 12 34 25 23 18 59 -17 93 -28 27 -91 46 -91 28z
m100 -84 c0 -27 -18 -22 -35 12 -22 43 -18 57 10 30 14 -13 25 -32 25 -42z"/>
<path d="M1230 2579 c-80 -31 -80 -163 0 -204 77 -40 178 13 135 71 -18 25
-35 9 -28 -26 5 -27 3 -30 -20 -30 -53 0 -119 117 -87 155 9 11 17 12 30 5 27
-14 50 -12 50 5 0 14 -30 36 -47 34 -4 0 -19 -5 -33 -10z"/>
<path d="M1505 1999 c-144 -19 -277 -77 -352 -152 -44 -45 -93 -163 -93 -225
0 -58 23 -195 45 -268 8 -30 38 -80 71 -123 31 -39 55 -74 53 -75 -2 -2 -42
21 -88 50 -47 30 -87 52 -89 49 -2 -2 -1 -20 2 -39 6 -30 23 -48 118 -122 77
-61 130 -95 175 -111 85 -31 95 -30 82 4 -6 15 -9 43 -7 62 l3 36 -55 10 c-53
10 -56 12 -128 105 -92 119 -97 131 -122 263 -24 131 -25 173 -3 251 34 122
121 168 348 187 210 18 426 0 509 -43 44 -23 86 -61 86 -79 0 -7 -6 -4 -14 7
-11 15 -25 19 -66 17 -117 -3 -137 -10 -180 -65 -39 -49 -40 -51 -40 -133 0
-48 6 -100 15 -125 19 -55 20 -84 1 -77 -8 3 -26 -3 -39 -14 -31 -24 -31 -24
-67 3 -24 17 -32 19 -44 9 -26 -21 -39 -2 -33 48 5 41 4 44 -9 26 -15 -21 -18
-73 -5 -93 5 -9 19 -11 43 -7 25 5 38 2 47 -9 18 -21 44 -20 65 3 10 11 25 17
36 14 28 -8 36 37 16 100 -12 39 -14 69 -8 122 l7 70 47 -3 c39 -3 47 0 53 17
7 23 20 27 31 10 3 -6 0 -15 -7 -20 -21 -13 8 -10 50 5 32 11 33 13 17 29 -11
10 -26 15 -39 12 -12 -3 -35 -1 -52 4 -16 5 -22 10 -13 10 10 1 17 7 15 14 -3
15 112 11 128 -4 10 -10 16 -65 18 -174 1 -45 -9 -89 -38 -175 -50 -150 -80
-208 -159 -305 -36 -44 -76 -93 -88 -108 -14 -17 -39 -32 -63 -37 -39 -9 -135
-14 -135 -6 0 1 5 17 11 33 23 69 -44 143 -97 108 -46 -30 -22 -121 38 -146
19 -8 66 -14 113 -14 97 1 134 18 172 78 14 23 52 71 83 107 69 78 67 74 124
230 72 200 79 231 66 294 -10 48 -9 58 7 82 12 18 18 47 18 83 0 98 -52 152
-181 186 -72 20 -301 28 -399 14z m35 -979 c0 -5 -2 -10 -4 -10 -3 0 -8 5 -11
10 -3 6 -1 10 4 10 6 0 11 -4 11 -10z"/>
<path d="M1252 1807 c-65 -12 -78 -23 -51 -40 13 -8 21 -6 34 7 19 19 72 18
210 -1 87 -12 112 -30 43 -29 -29 0 -83 -4 -121 -9 l-67 -8 32 -22 c18 -13 36
-19 39 -13 3 5 17 4 34 -4 24 -11 29 -10 41 6 7 11 15 24 17 30 3 8 12 8 35 0
19 -7 32 -8 34 -2 2 5 20 -2 41 -16 34 -24 37 -24 27 -5 -7 11 -9 26 -7 34 3
7 -10 28 -29 46 -35 34 -35 34 -142 36 -59 1 -135 -4 -170 -10z"/>
<path d="M1470 1230 c0 -5 4 -10 9 -10 5 0 18 -3 28 -6 16 -5 16 -4 -1 10 -23
18 -36 20 -36 6z"/>
<path d="M1815 1220 c-3 -5 1 -10 9 -10 9 0 16 5 16 10 0 6 -4 10 -9 10 -6 0
-13 -4 -16 -10z"/>
<path d="M1600 1211 c-22 -7 -20 -9 20 -14 63 -10 69 -10 125 0 l50 9 -37 7
c-21 5 -46 4 -56 -2 -11 -6 -24 -6 -33 0 -16 10 -34 10 -69 0z"/>
<path d="M1586 1109 c12 -13 28 -16 82 -12 37 3 73 11 79 17 10 9 -9 12 -81
11 -87 0 -93 -1 -80 -16z"/>
<path d="M1875 1088 c-21 -18 -28 -34 -29 -64 -1 -35 1 -39 26 -42 42 -5 80
38 76 86 -4 46 -33 54 -73 20z"/>
<path d="M539 1793 c-18 -48 23 -115 53 -85 9 9 8 12 -9 12 -29 0 -39 44 -18
76 14 22 14 24 0 24 -9 0 -20 -12 -26 -27z"/>
<path d="M1271 638 c-4 -13 -11 -58 -14 -100 l-5 -78 49 0 49 0 0 48 c0 26 -3
71 -6 100 -6 49 -8 52 -36 52 -20 0 -31 -6 -37 -22z"/>
<path d="M360 489 l0 -130 38 3 37 3 3 128 3 127 -41 0 -40 0 0 -131z"/>
</g>
</svg>
