<svg width="430" height="77" viewBox="0 0 430 77" fill="none" xmlns="http://www.w3.org/2000/svg">
<path d="M368.342 76.5L372.932 66.504H404.246L408.938 76.5H429.032L393.026 0H383.948L348.248 76.5H368.342ZM388.64 32.742L396.392 49.572H380.786L388.64 32.742Z" fill="#2E2E37"/>
<path d="M350.426 11.118C343.49 4.182 332.004 0 321.498 0C300.384 0 283.248 17.136 283.248 38.25C283.248 59.364 300.384 76.5 321.498 76.5C332.106 76.5 340.694 71.114 347.63 64.178L333.35 50.102C330.188 53.366 326.7 56.202 321.498 56.202C311.094 56.202 303.546 48.654 303.546 38.25C303.546 27.846 311.094 20.298 321.498 20.298C326.7 20.298 330.188 22.134 333.35 25.296L350.426 11.118Z" fill="#2E2E37"/>
<path d="M252.248 76.5H272.342V0H252.248V76.5Z" fill="#2E2E37"/>
<path d="M237.712 76.5V0H217.618V36.108L181.408 0H173.248V76.5H193.342V40.29L229.45 76.5H237.712Z" fill="#2E2E37"/>
<path d="M120.88 41.2052C121.206 40.8786 121.206 40.3493 120.88 40.0228L118.857 38L120.88 35.9774C121.206 35.6509 121.206 35.1216 120.88 34.795C120.553 34.4687 120.024 34.4686 119.698 34.795L117.084 37.4089C116.757 37.7355 116.757 38.2649 117.084 38.5913L119.698 41.2052C120.024 41.5316 120.553 41.5317 120.88 41.2052Z" fill="#2E2E37"/>
<path d="M124.144 41.9773L128.325 34.8709C128.559 34.4728 128.426 33.9604 128.028 33.7263C127.63 33.4923 127.118 33.625 126.883 34.023L122.703 41.1294C122.469 41.5274 122.602 42.0399 123 42.274C123.398 42.5081 123.91 42.3751 124.144 41.9773Z" fill="#2E2E37"/>
<path d="M131.226 41.2053L133.84 38.5913C134.166 38.2647 134.166 37.7353 133.84 37.4091L131.226 34.7952C130.9 34.4688 130.37 34.4688 130.044 34.7952C129.717 35.1218 129.717 35.6511 130.044 35.9776L132.066 38.0002L130.044 40.0229C129.717 40.3495 129.717 40.8788 130.044 41.2053C130.37 41.5317 130.899 41.5318 131.226 41.2053Z" fill="#2E2E37"/>
<path fill-rule="evenodd" clip-rule="evenodd" d="M120.631 51.3197C124.21 52.6317 128.066 52.4823 131.49 50.8952C138.573 47.6124 141.693 39.1083 138.409 32.0235C136.813 28.5791 133.971 25.9625 130.406 24.6557C123.106 21.9796 114.938 25.6328 112.194 33.1168C109.478 40.5259 113.225 48.6049 120.631 51.3197ZM114.136 43.2735C110.287 34.9684 116.394 25.4528 125.507 25.4528C130.237 25.4528 134.769 28.1459 136.892 32.7267C139.786 38.9709 137.033 46.4836 130.787 49.3781C124.543 52.2723 117.031 49.5194 114.136 43.2735Z" fill="#2E2E37"/>
<path fill-rule="evenodd" clip-rule="evenodd" d="M126.396 76.5C105.282 76.5 88.248 59.466 88.248 38.352C88.248 17.238 105.282 0 126.396 0C147.51 0 164.646 17.238 164.646 38.352C164.646 59.466 147.51 76.5 126.396 76.5ZM144.778 43.3194L148.707 46.3908C149.035 46.6469 149.124 47.1067 148.916 47.4672L145.414 53.5328C145.205 53.8933 144.763 54.0459 144.377 53.8902L139.747 52.0216C137.199 54.6102 134.036 56.438 130.54 57.3431L129.844 62.281C129.786 62.6938 129.433 63 129.016 63H122.012C121.595 63 121.242 62.6938 121.184 62.281L120.488 57.3431C116.992 56.438 113.829 54.6102 111.281 52.0216L106.652 53.8902C106.265 54.0459 105.823 53.8933 105.614 53.5328L102.112 47.4672C101.904 47.1067 101.993 46.6469 102.321 46.3908L106.25 43.3194C105.293 39.8522 105.295 36.1416 106.25 32.6806L102.321 29.6092C101.993 29.3531 101.904 28.8933 102.112 28.5328L105.614 22.4672C105.823 22.1067 106.265 21.9541 106.652 22.1098L111.281 23.9784C113.829 21.3898 116.992 19.5619 120.488 18.6569L121.184 13.719C121.242 13.3062 121.595 13 122.012 13H129.016C129.433 13 129.786 13.3062 129.844 13.719L130.54 18.6569C134.036 19.5619 137.199 21.3898 139.747 23.9784L144.377 22.1098C144.763 21.9541 145.205 22.1056 145.414 22.4672L148.916 28.5328C149.124 28.8933 149.035 29.3531 148.707 29.6092L144.778 32.6806C145.735 36.1478 145.733 39.8584 144.778 43.3194Z" fill="#2E2E37"/>
<path d="M9.078 0H0V76.5H20.196V37.332L40.29 55.488L60.282 37.23V76.5H80.478V0H71.4L40.29 28.356L9.078 0Z" fill="#2E2E37"/>
</svg>
