<?xml version="1.0" encoding="UTF-8"?>
<svg width="123px" height="48px" viewBox="0 0 123 48" version="1.1" xmlns="http://www.w3.org/2000/svg" xmlns:xlink="http://www.w3.org/1999/xlink">
    <!-- Generator: Sketch 60.1 (88133) - https://sketch.com -->
    <title>logo</title>
    <desc>Created with Sketch.</desc>
    <g id="Page-1" stroke="none" stroke-width="1" fill="none" fill-rule="evenodd">
        <g id="logo">
            <rect id="Rectangle" fill="#FFFFFF" fill-rule="nonzero" x="0" y="0" width="122.182" height="48" rx="10"></rect>
            <path d="M94.547,31.9639 L95.549,29.7829 L102.381,29.7829 L103.405,31.9639 L107.789,31.9639 L99.933,15.2729 L97.952,15.2729 L90.163,31.9639 L94.547,31.9639 Z M98.976,22.4167 L100.667,26.0887 L97.262,26.0887 L98.976,22.4167 Z" id="Shape" fill="#2E2E37" fill-rule="nonzero"></path>
            <path d="M90.638,17.6987 C89.125,16.1854 86.619,15.2729 84.327,15.2729 C79.72,15.2729 75.981,19.0117 75.981,23.6184 C75.981,28.2251 79.72,31.9639 84.327,31.9639 C86.641,31.9639 88.515,30.7887 90.028,29.2754 L86.913,26.2043 C86.223,26.9164 85.462,27.5352 84.327,27.5352 C82.057,27.5352 80.41,25.8884 80.41,23.6184 C80.41,21.3484 82.057,19.7016 84.327,19.7016 C85.462,19.7016 86.223,20.1022 86.913,20.7921 L90.638,17.6987 Z" id="Path" fill="#2E2E37" fill-rule="nonzero"></path>
            <polygon id="Path" fill="#2E2E37" fill-rule="nonzero" points="69.217 31.9639 73.601 31.9639 73.601 15.2729 69.217 15.2729"></polygon>
            <polygon id="Path" fill="#2E2E37" fill-rule="nonzero" points="66.046 31.9639 66.046 15.2729 61.6622 15.2729 61.6622 23.1511 53.7618 15.2729 51.9814 15.2729 51.9814 31.9639 56.3656 31.9639 56.3656 24.0635 64.2437 31.9639"></polygon>
            <path d="M41.7587,31.9639 C37.1521,31.9639 33.4355,28.2474 33.4355,23.6407 C33.4355,19.034 37.1521,15.2729 41.7587,15.2729 C46.3654,15.2729 50.1042,19.034 50.1042,23.6407 C50.1042,28.2474 46.3654,31.9639 41.7587,31.9639 Z M44.033,21.4401 C44.5578,21.9381 45.1005,22.453 45.4508,23.099 C45.9047,23.9361 45.8921,24.8658 45.4162,25.6497 C44.8259,26.6221 44.0029,26.8314 43.4165,26.8358 C43.1118,26.8383 42.8068,26.7846 42.5163,26.6792 C42.5801,26.9449 42.6619,27.0894 42.7308,27.1384 L42.8385,27.2148 L42.8385,27.9275 L40.4708,27.9275 L40.4708,27.2148 L40.5785,27.1384 C40.6474,27.0894 40.7292,26.9449 40.793,26.6791 C40.5025,26.7846 40.1977,26.838 39.8928,26.8358 C39.3063,26.8314 38.4834,26.6221 37.8931,25.6497 C37.4172,24.8658 37.4046,23.9361 37.8585,23.099 C38.2088,22.453 38.7515,21.9381 39.2763,21.4401 C39.3686,21.3525 39.4558,21.2698 39.5425,21.1858 C39.8676,20.871 40.1968,20.5674 40.5152,20.2738 L40.5167,20.2725 C40.8324,19.9814 41.1588,19.6804 41.4789,19.3704 L41.6546,19.2002 L41.8303,19.3704 C42.1508,19.6807 42.4775,19.982 42.7935,20.2733 L42.7941,20.2738 C43.1125,20.5674 43.4417,20.871 43.7668,21.1858 C43.8521,21.2684 43.9379,21.3498 44.0285,21.4358 L44.033,21.4401 Z" id="Shape" fill="#2E2E37"></path>
            <polygon id="Path" fill="#2E2E37" fill-rule="nonzero" points="16.1623 15.2729 14.1816 15.2729 14.1816 31.9639 18.588 31.9639 18.588 23.4181 22.9722 27.3794 27.3341 23.3959 27.3341 31.9639 31.7405 31.9639 31.7405 15.2729 29.7598 15.2729 22.9722 21.4597"></polygon>
        </g>
    </g>
</svg>