<svg width="24" height="24" viewBox="0 0 24 24" fill="none" xmlns="http://www.w3.org/2000/svg">
<path fill-rule="evenodd" clip-rule="evenodd" d="M4.82353 6.88235H9.52941C10.569 6.88235 11.4118 7.72511 11.4118 8.76471V17.2353C11.4118 17.7551 10.9904 18.1765 10.4706 18.1765H4.82353C4.30373 18.1765 3.88235 17.7551 3.88235 17.2353V7.82353C3.88235 7.30373 4.30373 6.88235 4.82353 6.88235ZM14.2353 20.0588C13.9053 20.0588 13.5885 20.0022 13.2941 19.8982V20.0588C13.2941 20.5786 12.8727 21 12.3529 21C11.8331 21 11.4118 20.5786 11.4118 20.0588V19.8982C11.1174 20.0022 10.8006 20.0588 10.4706 20.0588H4.82353C3.26414 20.0588 2 18.7947 2 17.2353V7.82353C2 6.26414 3.26414 5 4.82353 5H9.52941C10.6538 5 11.6631 5.49295 12.3529 6.27452C13.0428 5.49295 14.0521 5 15.1765 5H19.8824C21.4417 5 22.7059 6.26414 22.7059 7.82353V17.2353C22.7059 18.7947 21.4417 20.0588 19.8824 20.0588H14.2353ZM13.2941 8.76471V17.2353C13.2941 17.7551 13.7155 18.1765 14.2353 18.1765H19.8824C20.4021 18.1765 20.8235 17.7551 20.8235 17.2353V7.82353C20.8235 7.30373 20.4021 6.88235 19.8824 6.88235H15.1765C14.1369 6.88235 13.2941 7.72511 13.2941 8.76471ZM5.76471 8.76471H9.52941V10.6471H5.76471V8.76471ZM15.1765 8.76471H18.9412V10.6471H15.1765V8.76471ZM18.9412 11.5882H15.1765V13.4706H18.9412V11.5882ZM5.76471 11.5882H9.52941V13.4706H5.76471V11.5882ZM18.9412 14.4118H15.1765V16.2941H18.9412V14.4118ZM5.76471 14.4118H9.52941V16.2941H5.76471V14.4118Z" fill="#262C40"/>
</svg>
