<svg width="24" height="24" viewBox="0 0 24 24" fill="none" xmlns="http://www.w3.org/2000/svg">
<path d="M8.6 17.4H15.8V15.6H8.6V17.4Z" fill="#262C40"/>
<path d="M15.8 13.8H8.6V12H15.8V13.8Z" fill="#262C40"/>
<path d="M8.6 10.2H11.3V8.4H8.6V10.2Z" fill="#262C40"/>
<path fill-rule="evenodd" clip-rule="evenodd" d="M7.7 3C6.20883 3 5 4.20883 5 5.7V18.3C5 19.7912 6.20883 21 7.7 21H16.7C18.1912 21 19.4 19.7912 19.4 18.3V9.3C19.4 5.82061 17.4794 3 14 3H7.7ZM7.7 4.8H13.1V9.3H17.6V18.3C17.6 18.7971 17.1971 19.2 16.7 19.2H7.7C7.20294 19.2 6.8 18.7971 6.8 18.3V5.7C6.8 5.20294 7.20294 4.8 7.7 4.8ZM14.9 4.89002C16.3502 5.18439 16.6471 6.17615 17.2256 7.5H14.9V4.89002Z" fill="#262C40"/>
</svg>
