<svg width="24" height="24" viewBox="0 0 24 24" fill="none" xmlns="http://www.w3.org/2000/svg">
<path fill-rule="evenodd" clip-rule="evenodd" d="M6.58672 21.76C5.15811 21.76 4 20.6019 4 19.1733V10.5509C4 10.5217 4.00145 10.4928 4.00429 10.4643H4C4 9.96769 4.19728 9.49141 4.54844 9.14024L9.93106 3.75763C10.9412 2.74746 12.579 2.74746 13.5892 3.75763L18.9718 9.14026C19.323 9.49142 19.5203 9.96769 19.5203 10.4643H19.516C19.5188 10.4928 19.5203 10.5217 19.5203 10.5509V19.1733C19.5203 20.6019 18.3622 21.76 16.9336 21.76H6.58672ZM12.3698 4.97702L17.7958 10.403V19.1733C17.7958 19.6495 17.4098 20.0355 16.9336 20.0355H14.3469V15.7243C14.3469 14.2957 13.1887 13.1376 11.7601 13.1376C10.3315 13.1376 9.17343 14.2957 9.17343 15.7243V20.0355H6.58672C6.11051 20.0355 5.72448 19.6495 5.72448 19.1733V10.4031L11.1504 4.97702C11.4872 4.6403 12.0331 4.6403 12.3698 4.97702Z" fill="#262C40"/>
</svg>
