<svg width="24" height="24" viewBox="0 0 24 24" fill="none" xmlns="http://www.w3.org/2000/svg">
<path fill-rule="evenodd" clip-rule="evenodd" d="M18.3 4.8H5.7C5.20294 4.8 4.8 5.20294 4.8 5.7V18.3C4.8 18.7971 5.20294 19.2 5.7 19.2H18.3C18.7971 19.2 19.2 18.7971 19.2 18.3V5.7C19.2 5.20294 18.7971 4.8 18.3 4.8ZM5.7 3C4.20883 3 3 4.20883 3 5.7V18.3C3 19.7912 4.20883 21 5.7 21H18.3C19.7912 21 21 19.7912 21 18.3V5.7C21 4.20883 19.7912 3 18.3 3H5.7Z" fill="#262C40"/>
<path d="M11.1 7.5H12.9V16.5H11.1V7.5Z" fill="#262C40"/>
<path d="M14.7 12.9H16.5V16.5H14.7V12.9Z" fill="#262C40"/>
<path d="M7.5 10.2H9.3V16.5H7.5V10.2Z" fill="#262C40"/>
</svg>
