<svg width="24" height="24" viewBox="0 0 24 24" fill="none" xmlns="http://www.w3.org/2000/svg">
<path d="M17.7803 12.8442C17.7803 12.603 17.8607 12.3618 17.8607 12.0402C17.8607 11.7186 17.8607 11.4774 17.7803 11.2362L19.4687 9.86934C19.6295 9.70853 19.6295 9.54773 19.5491 9.38692L17.9411 6.57286C17.8607 6.49246 17.6999 6.41206 17.4587 6.49246L15.4486 7.29648C15.0466 6.97487 14.5642 6.73366 14.0818 6.49246L13.7602 4.40201C13.8406 4.1608 13.5994 4 13.4386 4H10.2225C10.0617 4 9.82051 4.1608 9.82051 4.32161L9.4989 6.49246C9.01649 6.65326 8.61448 6.97487 8.13207 7.29648L6.20242 6.49246C5.96122 6.41206 5.80041 6.49246 5.63958 6.65326L4.03154 9.46733C3.95114 9.54773 4.03154 9.78893 4.19235 9.94974L5.88078 11.2362C5.88078 11.4774 5.80038 11.7186 5.80038 12.0402C5.80038 12.3618 5.80038 12.603 5.88078 12.8442L4.19235 14.211C4.03154 14.3719 4.03154 14.5326 4.11194 14.6935L5.71998 17.5075C5.80038 17.5879 5.96116 17.6683 6.20239 17.5879L8.21244 16.7839C8.61445 17.1055 9.09686 17.3467 9.57927 17.5879L9.90088 19.6784C9.90088 19.8392 10.0617 20 10.3029 20H13.519C13.6798 20 13.921 19.8392 13.921 19.6784L14.2426 17.5879C14.725 17.3467 15.2074 17.1055 15.6094 16.7839L17.6195 17.5879C17.7803 17.6683 18.0215 17.5879 18.1019 17.4271L19.7099 14.613C19.7903 14.4522 19.7903 14.211 19.6295 14.1306L17.7803 12.8442ZM11.8306 14.8543C10.3029 14.8543 9.01649 13.5678 9.01649 12.0402C9.01649 10.5126 10.3029 9.22612 11.8306 9.22612C13.3582 9.22612 14.6446 10.5126 14.6446 12.0402C14.6446 13.5678 13.3582 14.8543 11.8306 14.8543Z" fill="#262C40"/>
</svg>
