<svg width="24" height="24" viewBox="0 0 24 24" fill="none" xmlns="http://www.w3.org/2000/svg">
<path d="M19.7762 8.89458C19.6136 8.71621 19.3835 8.61446 19.142 8.61446H3.85797C3.61663 8.61446 3.38635 8.71621 3.22377 8.89458C3.06119 9.07295 2.98131 9.31163 3.0037 9.55195L3.81919 18.3116C3.86029 18.7528 4.23042 19.0901 4.67347 19.0901H18.3265C18.7696 19.0901 19.1397 18.7527 19.1808 18.3116L19.9963 9.55195C20.0187 9.31163 19.9388 9.07295 19.7762 8.89458ZM14.3616 17.2934C14.361 17.2933 14.3605 17.2933 14.3599 17.2934H8.64016C8.16631 17.2934 7.7822 16.9092 7.7822 16.4355C7.7822 15.2703 8.73007 14.3225 9.89518 14.3225H10.5109C9.87768 13.9726 9.44767 13.2981 9.44767 12.5249C9.44767 11.3932 10.3684 10.4725 11.5001 10.4725C12.6318 10.4725 13.5525 11.3931 13.5525 12.5249C13.5525 13.2981 13.1225 13.9726 12.4892 14.3225H13.105C14.2463 14.3225 15.1792 15.2322 15.2168 16.3646C15.2187 16.3879 15.2197 16.4116 15.2197 16.4355C15.2196 16.9093 14.8355 17.2934 14.3616 17.2934ZM18.3494 7.01719C18.3494 7.37264 18.0613 7.66066 17.706 7.66066H5.29411C4.93875 7.66066 4.65064 7.37264 4.65064 7.01719C4.65064 6.66174 4.93875 6.37372 5.29411 6.37372H17.706C18.0613 6.37372 18.3494 6.66174 18.3494 7.01719ZM16.6507 4.64347C16.6507 4.99892 16.3626 5.28694 16.0072 5.28694H6.99288C6.63751 5.28694 6.34941 4.99892 6.34941 4.64347C6.34941 4.28802 6.63751 4 6.99288 4H16.0071C16.3626 4 16.6507 4.28802 16.6507 4.64347Z" fill="#262C40"/>
</svg>
